<svg xmlns="http://www.w3.org/2000/svg" xmlns:xlink="http://www.w3.org/1999/xlink" width="52.28" height="52.28" viewBox="0 0 52.28 52.28">
  <defs>
    <linearGradient id="linear-gradient" x1="0.172" y1="-0.132" x2="1.164" y2="1.132" gradientUnits="objectBoundingBox">
      <stop offset="0"/>
      <stop offset="1" stop-color="gray" stop-opacity="0"/>
    </linearGradient>
  </defs>
  <g id="Path_2511" data-name="Path 2511" fill="url(#linear-gradient)">
    <path d="M 26.1397876739502 51.77957916259766 C 22.6782169342041 51.77957916259766 19.32045745849609 51.10173797607422 16.1597785949707 49.76487731933594 C 13.1066780090332 48.47352600097656 10.36459732055664 46.62472915649414 8.00971794128418 44.26985931396484 C 5.654847621917725 41.91497802734375 3.806047677993774 39.17289733886719 2.514697790145874 36.11979675292969 C 1.177837729454041 32.9591178894043 0.4999976754188538 29.60135841369629 0.4999976754188538 26.1397876739502 C 0.4999976754188538 22.6782169342041 1.177837729454041 19.32045745849609 2.514697790145874 16.1597785949707 C 3.806047677993774 13.1066780090332 5.654847621917725 10.36459732055664 8.00971794128418 8.00971794128418 C 10.36459732055664 5.654847621917725 13.1066780090332 3.806047677993774 16.1597785949707 2.514697790145874 C 19.32045745849609 1.177837729454041 22.6782169342041 0.4999976754188538 26.1397876739502 0.4999976754188538 C 29.60135841369629 0.4999976754188538 32.9591178894043 1.177837729454041 36.11979675292969 2.514697790145874 C 39.17289733886719 3.806047677993774 41.91497802734375 5.654847621917725 44.26985931396484 8.00971794128418 C 46.62472915649414 10.36459732055664 48.47352600097656 13.1066780090332 49.76487731933594 16.1597785949707 C 51.10173797607422 19.32045745849609 51.77957916259766 22.6782169342041 51.77957916259766 26.1397876739502 C 51.77957916259766 29.60135841369629 51.10173797607422 32.9591178894043 49.76487731933594 36.11979675292969 C 48.47352600097656 39.17289733886719 46.62472915649414 41.91497802734375 44.26985931396484 44.26985931396484 C 41.91497802734375 46.62472915649414 39.17289733886719 48.47352600097656 36.11979675292969 49.76487731933594 C 32.9591178894043 51.10173797607422 29.60135841369629 51.77957916259766 26.1397876739502 51.77957916259766 Z" stroke="none"/>
    <path d="M 26.1397876739502 0.9999961853027344 C 22.74549674987793 0.9999961853027344 19.45326614379883 1.664546966552734 16.35454940795898 2.975196838378906 C 13.36104583740234 4.241348266601562 10.67238616943359 6.054157257080078 8.363265991210938 8.363265991210938 C 6.054157257080078 10.67238616943359 4.241348266601562 13.36104583740234 2.975196838378906 16.35454940795898 C 1.664546966552734 19.45326614379883 0.9999961853027344 22.74549674987793 0.9999961853027344 26.1397876739502 C 0.9999961853027344 29.53407859802246 1.664546966552734 32.82630920410156 2.975196838378906 35.92501831054688 C 4.241348266601562 38.91852569580078 6.054157257080078 41.60718536376953 8.363265991210938 43.91629791259766 C 10.67238616943359 46.22541809082031 13.36104583740234 48.03822708129883 16.35455703735352 49.30437850952148 C 19.45326614379883 50.61502838134766 22.74549674987793 51.27957916259766 26.1397876739502 51.27957916259766 C 29.53407859802246 51.27957916259766 32.82630920410156 50.61502838134766 35.92501831054688 49.30437850952148 C 38.91852569580078 48.03822708129883 41.60718536376953 46.22541809082031 43.91629791259766 43.91629791259766 C 46.22541809082031 41.60718536376953 48.03822708129883 38.91852569580078 49.30437850952148 35.92501831054688 C 50.61502838134766 32.82630920410156 51.27957916259766 29.53407859802246 51.27957916259766 26.1397876739502 C 51.27957916259766 22.74549674987793 50.61502838134766 19.45326614379883 49.30437850952148 16.35455703735352 C 48.03822708129883 13.36104583740234 46.22541809082031 10.67238616943359 43.91629791259766 8.363265991210938 C 41.60718536376953 6.054157257080078 38.91852569580078 4.241348266601562 35.92501831054688 2.975196838378906 C 32.82630920410156 1.664546966552734 29.53407859802246 0.9999961853027344 26.1397876739502 0.9999961853027344 M 26.1397876739502 -3.814697265625e-06 C 40.57638549804688 -3.814697265625e-06 52.27957916259766 11.70317840576172 52.27957916259766 26.1397876739502 C 52.27957916259766 40.57638549804688 40.57638549804688 52.27957916259766 26.1397876739502 52.27957916259766 C 11.70317840576172 52.27957916259766 -3.814697265625e-06 40.57638549804688 -3.814697265625e-06 26.1397876739502 C -3.814697265625e-06 11.70317840576172 11.70317840576172 -3.814697265625e-06 26.1397876739502 -3.814697265625e-06 Z" stroke="none" fill="#9c9c9c"/>
  </g>
</svg>
